<svg width="32" height="32" viewBox="0 0 32 32" fill="none" xmlns="http://www.w3.org/2000/svg">
<path d="M18.2006 13.1525C17.5561 13.1525 17.0567 13.6519 17.0567 14.2685C17.0567 14.8851 17.5561 15.3845 18.2006 15.3845C18.7892 15.3845 19.2887 14.8851 19.2887 14.2685C19.2887 13.6519 18.7892 13.1525 18.2006 13.1525ZM10.3885 13.1525C9.74404 13.1525 9.24463 13.6519 9.24463 14.2685C9.24463 14.8851 9.74404 15.3845 10.3885 15.3845C10.9772 15.3845 11.4766 14.8851 11.4766 14.2685C11.4766 13.6519 10.9772 13.1525 10.3885 13.1525Z" fill="black"/>
<path d="M27.1567 11.0321C25.8147 9.19067 23.9398 7.96027 21.8836 7.40506V7.40785C21.4065 6.87775 20.868 6.3895 20.2654 5.95425C15.6981 2.63414 9.28669 3.64692 5.95263 8.21416C3.26586 11.9249 3.38025 16.9162 6.12003 20.4623L6.14235 24.1619C6.14235 24.2511 6.1563 24.3404 6.1842 24.4241C6.33207 24.8956 6.83428 25.1551 7.303 25.0072L10.8351 23.894C11.7698 24.226 12.7351 24.4157 13.6949 24.4688L13.681 24.4799C16.1669 26.2906 19.4256 26.8347 22.4137 25.847L25.9598 27.0021C26.0491 27.03 26.1411 27.0467 26.236 27.0467C26.7298 27.0467 27.1288 26.6478 27.1288 26.1539V22.4153C29.5868 19.0785 29.651 14.4666 27.1567 11.0321ZM11.2257 21.9131L10.8909 21.7736L8.12884 22.6385L8.10094 19.7369L7.87774 19.4858C5.51739 16.6065 5.36115 12.4578 7.57084 9.41387C10.2604 5.72547 15.4163 4.91079 19.0936 7.57246C22.782 10.2537 23.5994 15.4012 20.935 19.0673C18.7002 22.1335 14.6993 23.2663 11.2257 21.9131ZM25.3153 21.4388L25.0921 21.7178L25.12 24.6194L22.3858 23.6987L22.051 23.8382C20.4886 24.4185 18.8229 24.466 17.2801 24.0335L17.2745 24.0307C19.3363 23.3974 21.2056 22.114 22.5532 20.267C24.6847 17.3291 25.0307 13.6379 23.7919 10.4908L23.8087 10.502C24.4504 10.9623 25.0391 11.5371 25.5385 12.2318C27.564 15.0106 27.4496 18.7939 25.3153 21.4388Z" fill="black"/>
<path d="M14.2945 13.1525C13.65 13.1525 13.1506 13.6519 13.1506 14.2685C13.1506 14.8851 13.65 15.3845 14.2945 15.3845C14.8832 15.3845 15.3826 14.8851 15.3826 14.2685C15.3826 13.6519 14.8832 13.1525 14.2945 13.1525Z" fill="black"/>
</svg>
