<svg width="32" height="32" viewBox="0 0 32 32" fill="none" xmlns="http://www.w3.org/2000/svg">
<path d="M7.50427 26.0013C7.01797 26.0021 6.53372 25.9382 6.06427 25.8113C4.65518 25.4094 3.45971 24.4713 2.73434 23.1982C2.00897 21.925 1.81149 20.4183 2.18427 19.0013L4.51427 10.1613C4.69573 9.44583 5.01832 8.77388 5.46309 8.18486C5.90786 7.59584 6.46584 7.10163 7.10427 6.73126C7.7259 6.37121 8.41279 6.13809 9.12516 6.04539C9.83753 5.9527 10.5612 6.00228 11.2543 6.19126C11.991 6.39585 12.6772 6.75127 13.2694 7.23498C13.8616 7.7187 14.3468 8.32017 14.6943 9.00126H17.2943C17.6403 8.31908 18.125 7.71673 18.7174 7.23283C19.3098 6.74893 19.9968 6.39416 20.7343 6.19126C21.4273 6.00228 22.151 5.9527 22.8634 6.04539C23.5758 6.13809 24.2626 6.37121 24.8843 6.73126C25.5196 7.10068 26.0755 7.59218 26.5201 8.17743C26.9646 8.76268 27.2889 9.43011 27.4743 10.1413L29.8043 19.0013C30.1826 20.4225 29.9867 21.9354 29.2589 23.2134C28.531 24.4913 27.3296 25.4317 25.9143 25.8313C25.2212 26.0202 24.4975 26.0698 23.7852 25.9771C23.0728 25.8844 22.3859 25.6513 21.7643 25.2913C21.1279 24.9232 20.5712 24.4321 20.1265 23.8466C19.6818 23.2612 19.3581 22.5931 19.1743 21.8813L18.9943 21.0013H12.9943L12.7643 21.8613C12.5804 22.5731 12.2567 23.2412 11.8121 23.8266C11.3674 24.4121 10.8106 24.9032 10.1743 25.2713C9.36175 25.7399 8.4422 25.9913 7.50427 26.0013V26.0013ZM9.82427 8.00126C9.22081 8.00331 8.62819 8.1618 8.10427 8.46126C7.28313 8.94304 6.68626 9.73048 6.44427 10.6513L4.11427 19.4913C3.87046 20.402 3.99366 21.372 4.45739 22.1929C4.92112 23.0138 5.68838 23.62 6.59427 23.8813C7.03178 24.0006 7.4886 24.032 7.93832 23.9736C8.38804 23.9153 8.82172 23.7683 9.21427 23.5413C9.62298 23.3053 9.98037 22.99 10.2655 22.6139C10.5505 22.2378 10.7575 21.8085 10.8743 21.3513L11.4943 19.0013H20.4943L21.1043 21.3513C21.2231 21.8076 21.4309 22.2361 21.7158 22.6119C22.0006 22.9877 22.357 23.3036 22.7643 23.5413C23.1588 23.7681 23.5941 23.9149 24.0454 23.9732C24.4967 24.0316 24.9551 24.0003 25.3943 23.8813C26.3013 23.6224 27.0695 23.0162 27.532 22.1942C27.9945 21.3721 28.1139 20.4008 27.8643 19.4913L25.5343 10.6513C25.4182 10.1951 25.2125 9.7665 24.9292 9.39053C24.646 9.01455 24.2908 8.69867 23.8843 8.46126C23.4898 8.23443 23.0544 8.08764 22.6031 8.02929C22.1518 7.97095 21.6935 8.0022 21.2543 8.12126C20.7111 8.27609 20.2127 8.55828 19.8006 8.94438C19.3884 9.33049 19.0742 9.80938 18.8843 10.3413L18.6443 11.0013H13.3443L13.1043 10.3413C12.9126 9.80867 12.5967 9.32945 12.1828 8.94336C11.7689 8.55727 11.2689 8.27544 10.7243 8.12126C10.4308 8.04213 10.1282 8.00178 9.82427 8.00126V8.00126Z" fill="black"/>
<path d="M9.99414 16.0012C9.59858 16.0012 9.2119 15.8839 8.883 15.6642C8.5541 15.4444 8.29776 15.132 8.14638 14.7666C7.99501 14.4011 7.9554 13.999 8.03257 13.611C8.10974 13.2231 8.30022 12.8667 8.57993 12.587C8.85963 12.3073 9.216 12.1168 9.60396 12.0397C9.99192 11.9625 10.3941 12.0021 10.7595 12.1535C11.125 12.3048 11.4373 12.5612 11.6571 12.8901C11.8768 13.219 11.9941 13.6057 11.9941 14.0012C11.9941 14.5317 11.7834 15.0404 11.4084 15.4154C11.0333 15.7905 10.5246 16.0012 9.99414 16.0012Z" fill="black"/>
<path d="M21.9941 13.0012C22.5464 13.0012 22.9941 12.5535 22.9941 12.0012C22.9941 11.4489 22.5464 11.0012 21.9941 11.0012C21.4419 11.0012 20.9941 11.4489 20.9941 12.0012C20.9941 12.5535 21.4419 13.0012 21.9941 13.0012Z" fill="black"/>
<path d="M21.9941 17.0012C22.5464 17.0012 22.9941 16.5535 22.9941 16.0012C22.9941 15.4489 22.5464 15.0012 21.9941 15.0012C21.4419 15.0012 20.9941 15.4489 20.9941 16.0012C20.9941 16.5535 21.4419 17.0012 21.9941 17.0012Z" fill="black"/>
<path d="M19.9941 15.0012C20.5464 15.0012 20.9941 14.5535 20.9941 14.0012C20.9941 13.4489 20.5464 13.0012 19.9941 13.0012C19.4419 13.0012 18.9941 13.4489 18.9941 14.0012C18.9941 14.5535 19.4419 15.0012 19.9941 15.0012Z" fill="black"/>
<path d="M23.9941 15.0012C24.5464 15.0012 24.9941 14.5535 24.9941 14.0012C24.9941 13.4489 24.5464 13.0012 23.9941 13.0012C23.4419 13.0012 22.9941 13.4489 22.9941 14.0012C22.9941 14.5535 23.4419 15.0012 23.9941 15.0012Z" fill="black"/>
</svg>
