<svg width="32" height="32" viewBox="0 0 32 32" fill="none" xmlns="http://www.w3.org/2000/svg">
<path d="M28.4816 16.2645L17.8264 5.93733L17.1122 5.24474C16.9495 5.08798 16.7294 5 16.5 5C16.2707 5 16.0506 5.08798 15.8879 5.24474L4.51853 16.2645C4.35179 16.4256 4.22 16.6174 4.13097 16.8287C4.04193 17.04 3.99743 17.2664 4.00011 17.4946C4.01114 18.4359 4.8191 19.1873 5.78976 19.1873H6.96171V27.8967H26.0384V19.1873H27.2352C27.7067 19.1873 28.1507 19.0081 28.4843 18.6846C28.6486 18.5258 28.7788 18.3369 28.8673 18.129C28.9558 17.9211 29.0009 17.6982 29 17.4732C29 17.0186 28.8152 16.5881 28.4816 16.2645V16.2645ZM18.0443 25.9714H14.9558V20.5163H18.0443V25.9714ZM24.053 17.262V25.9714H19.8091V19.8745C19.8091 19.2836 19.3155 18.8049 18.7061 18.8049H14.294C13.6846 18.8049 13.191 19.2836 13.191 19.8745V25.9714H8.94714V17.262H6.2999L16.5028 7.37597L17.1398 7.99368L26.703 17.262H24.053Z" fill="black"/>
</svg>
