<svg width="98" height="98" viewBox="0 0 98 98" fill="none" xmlns="http://www.w3.org/2000/svg">
<g filter="url(#filter0_d_2_220)">
<rect x="24" y="18" width="50" height="50" rx="14" fill="white"/>
</g>
<path d="M58.1436 42.1078H44.6182C44.3903 42.1078 44.2031 42.1829 44.0566 42.333C43.9102 42.4831 43.8369 42.6648 43.8369 42.8781C43.8369 43.0913 43.9102 43.2691 44.0566 43.4113C44.2031 43.5535 44.3903 43.6246 44.6182 43.6246H58.0947L55.2627 46.3736C55.1162 46.5158 55.043 46.6936 55.043 46.9069C55.043 47.1201 55.1162 47.2979 55.2627 47.4401C55.3766 47.5349 55.4987 47.602 55.6289 47.6415C55.7591 47.681 55.8934 47.681 56.0317 47.6415C56.1701 47.602 56.2881 47.5349 56.3857 47.4401L61 42.8425L56.3857 38.2449C56.3044 38.1817 56.2148 38.1304 56.1172 38.0909C56.0195 38.0514 55.9219 38.0317 55.8242 38.0317C55.6126 38.0317 55.4255 38.1028 55.2627 38.2449C55.2139 38.2923 55.1732 38.3476 55.1406 38.4108C55.1081 38.474 55.0837 38.5372 55.0674 38.6004C55.0511 38.6636 55.043 38.7268 55.043 38.79C55.043 38.8532 55.0511 38.9164 55.0674 38.9796C55.0837 39.0428 55.1081 39.106 55.1406 39.1692C55.1732 39.2324 55.2139 39.2877 55.2627 39.3351L58.1436 42.1078ZM37.5625 55H50.8438C51.2832 55 51.6535 54.8539 51.9546 54.5616C52.2557 54.2693 52.4062 53.9099 52.4062 53.4833V46.658H50.8438V52.559C50.8438 52.717 50.8031 52.8671 50.7217 53.0093C50.6403 53.1515 50.5264 53.266 50.3799 53.3529C50.2334 53.4398 50.0706 53.4833 49.8916 53.4833H38.5391C38.2786 53.4833 38.0589 53.3924 37.8799 53.2107C37.7008 53.029 37.6113 52.8118 37.6113 52.559L37.5869 33.1734C37.5869 32.9206 37.6764 32.7034 37.8555 32.5217C38.0345 32.34 38.2542 32.2491 38.5146 32.2491H49.8916C50.152 32.2491 50.3758 32.34 50.563 32.5217C50.7502 32.7034 50.8438 32.9206 50.8438 33.1734V39.0981H52.4062V32.2491C52.4062 31.8226 52.2557 31.4631 51.9546 31.1708C51.6535 30.8786 51.2832 30.7324 50.8438 30.7324L37.5625 30.7324C37.4648 30.7324 37.3631 30.7443 37.2573 30.768C37.1515 30.7917 37.0539 30.8193 36.9644 30.8509C36.8748 30.8825 36.7853 30.926 36.6958 30.9813C36.6063 31.0366 36.529 31.0998 36.4639 31.1708C36.3988 31.2419 36.3377 31.317 36.2808 31.396C36.2238 31.475 36.175 31.5619 36.1343 31.6567C36.0936 31.7515 36.061 31.8463 36.0366 31.9411C36.0122 32.0359 36 32.1386 36 32.2491V53.4833C36 54.0994 36.2848 54.5497 36.8545 54.8341C37.0824 54.9447 37.3184 55 37.5625 55Z" fill="#261D56"/>
<defs>
<filter id="filter0_d_2_220" x="0" y="0" width="98" height="98" filterUnits="userSpaceOnUse" color-interpolation-filters="sRGB">
<feFlood flood-opacity="0" result="BackgroundImageFix"/>
<feColorMatrix in="SourceAlpha" type="matrix" values="0 0 0 0 0 0 0 0 0 0 0 0 0 0 0 0 0 0 127 0" result="hardAlpha"/>
<feOffset dy="6"/>
<feGaussianBlur stdDeviation="12"/>
<feColorMatrix type="matrix" values="0 0 0 0 0.716667 0 0 0 0 0.716667 0 0 0 0 0.716667 0 0 0 0.4 0"/>
<feBlend mode="normal" in2="BackgroundImageFix" result="effect1_dropShadow_2_220"/>
<feBlend mode="normal" in="SourceGraphic" in2="effect1_dropShadow_2_220" result="shape"/>
</filter>
</defs>
</svg>
