<svg width="32" height="32" viewBox="0 0 32 32" fill="none" xmlns="http://www.w3.org/2000/svg">
<path d="M26.1436 15.3754L12.6182 15.3754C12.3903 15.3754 12.2031 15.4505 12.0566 15.6006C11.9102 15.7507 11.8369 15.9323 11.8369 16.1456C11.8369 16.3589 11.9102 16.5367 12.0566 16.6789C12.2031 16.8211 12.3903 16.8922 12.6182 16.8922H26.0947L23.2627 19.6412C23.1162 19.7834 23.043 19.9611 23.043 20.1744C23.043 20.3877 23.1162 20.5655 23.2627 20.7077C23.3766 20.8025 23.4987 20.8696 23.6289 20.9091C23.7591 20.9486 23.8934 20.9486 24.0317 20.9091C24.1701 20.8696 24.2881 20.8025 24.3857 20.7077L29 16.1101L24.3857 11.5125C24.3044 11.4493 24.2148 11.398 24.1172 11.3585C24.0195 11.319 23.9219 11.2992 23.8242 11.2992C23.6126 11.2992 23.4255 11.3703 23.2627 11.5125C23.2139 11.5599 23.1732 11.6152 23.1406 11.6784C23.1081 11.7416 23.0837 11.8048 23.0674 11.868C23.0511 11.9312 23.043 11.9944 23.043 12.0576C23.043 12.1208 23.0511 12.184 23.0674 12.2472C23.0837 12.3104 23.1081 12.3736 23.1406 12.4368C23.1732 12.5 23.2139 12.5553 23.2627 12.6027L26.1436 15.3754ZM5.5625 28.2676L18.8438 28.2676C19.2832 28.2676 19.6535 28.1214 19.9546 27.8292C20.2557 27.5369 20.4062 27.1774 20.4062 26.7509V19.9256H18.8438V25.8266C18.8438 25.9846 18.8031 26.1347 18.7217 26.2769C18.6403 26.4191 18.5264 26.5336 18.3799 26.6205C18.2334 26.7074 18.0706 26.7509 17.8916 26.7509L6.53906 26.7509C6.27865 26.7509 6.05892 26.66 5.87988 26.4783C5.70085 26.2966 5.61133 26.0794 5.61133 25.8266L5.58691 6.44098C5.58691 6.18819 5.67643 5.97095 5.85547 5.78926C6.03451 5.60757 6.25423 5.51672 6.51465 5.51672L17.8916 5.51672C18.152 5.51672 18.3758 5.60757 18.563 5.78926C18.7502 5.97095 18.8437 6.18819 18.8437 6.44098L18.8438 12.3657H20.4062L20.4062 5.51672C20.4062 5.09015 20.2557 4.73071 19.9546 4.43843C19.6535 4.14614 19.2832 4 18.8437 4L5.5625 4C5.46484 4 5.36312 4.01185 5.25732 4.03555C5.15153 4.05925 5.05387 4.0869 4.96436 4.11849C4.87484 4.15009 4.78532 4.19354 4.6958 4.24884C4.60628 4.30413 4.52897 4.36733 4.46387 4.43843C4.39876 4.50952 4.33773 4.58457 4.28076 4.66357C4.2238 4.74256 4.17497 4.82946 4.13428 4.92425C4.09359 5.01905 4.06104 5.11384 4.03662 5.20864C4.01221 5.30343 4 5.40613 4 5.51672L4 26.7509C4 27.367 4.28483 27.8173 4.85449 28.1017C5.08236 28.2123 5.31836 28.2676 5.5625 28.2676Z" fill="black"/>
</svg>
