<svg width="32" height="32" viewBox="0 0 32 32" fill="none" xmlns="http://www.w3.org/2000/svg">
<path d="M26.9574 16.9997C26.7534 16.7771 26.6409 16.4911 26.6409 16.1949C26.6409 15.8987 26.7534 15.6127 26.9574 15.3901L28.586 13.6343C28.7654 13.4425 28.8769 13.2011 28.9043 12.9448C28.9317 12.6885 28.8737 12.4305 28.7386 12.2077L26.194 7.98885C26.0603 7.76635 25.8567 7.58998 25.6122 7.48489C25.3677 7.37979 25.0949 7.35133 24.8326 7.40357L22.4406 7.86692C22.1362 7.92719 21.8193 7.87861 21.5498 7.73035C21.2802 7.5821 21.0766 7.34442 20.9774 7.06216L20.2013 4.8308C20.1159 4.58862 19.9533 4.37826 19.7364 4.22948C19.5195 4.08069 19.2593 4.001 18.9925 4.00166H13.9032C13.6257 3.98778 13.3512 4.06132 13.1214 4.21103C12.8917 4.36075 12.7194 4.57842 12.6308 4.8308L11.9183 7.06216C11.8191 7.34442 11.6155 7.5821 11.3459 7.73035C11.0764 7.87861 10.7595 7.92719 10.4551 7.86692L7.99953 7.40357C7.75086 7.3699 7.49734 7.4075 7.27093 7.51165C7.04451 7.6158 6.85532 7.78184 6.72719 7.98885L4.18252 12.2077C4.04404 12.428 3.98177 12.6846 4.00462 12.9408C4.02747 13.197 4.13427 13.4398 4.30975 13.6343L5.92562 15.3901C6.1296 15.6127 6.2421 15.8987 6.2421 16.1949C6.2421 16.4911 6.1296 16.7771 5.92562 16.9997L4.30975 18.7555C4.13427 18.95 4.02747 19.1928 4.00462 19.449C3.98177 19.7052 4.04404 19.9618 4.18252 20.1821L6.72719 24.401C6.86091 24.6235 7.06452 24.7998 7.30897 24.9049C7.55343 25.01 7.82627 25.0385 8.0886 24.9862L10.4806 24.5229C10.785 24.4626 11.1018 24.5112 11.3714 24.6595C11.6409 24.8077 11.8445 25.0454 11.9438 25.3276L12.7199 27.559C12.8084 27.8114 12.9807 28.0291 13.2105 28.1788C13.4402 28.3285 13.7148 28.402 13.9922 28.3881H19.0816C19.3483 28.3888 19.6085 28.3091 19.8254 28.1603C20.0423 28.0115 20.205 27.8012 20.2903 27.559L21.0664 25.3276C21.1657 25.0454 21.3693 24.8077 21.6389 24.6595C21.9084 24.5112 22.2253 24.4626 22.5296 24.5229L24.9216 24.9862C25.184 25.0385 25.4568 25.01 25.7013 24.9049C25.9457 24.7998 26.1493 24.6235 26.283 24.401L28.8277 20.1821C28.9628 19.9593 29.0208 19.7013 28.9934 19.445C28.9659 19.1887 28.8545 18.9473 28.675 18.7555L26.9574 16.9997ZM25.0616 18.6336L26.0795 19.7309L24.4509 22.4378L22.9495 22.1452C22.0331 21.9657 21.0799 22.1149 20.2707 22.5644C19.4615 23.014 18.8528 23.7326 18.5599 24.5839L18.0765 25.9495H14.8193L14.3612 24.5595C14.0684 23.7082 13.4596 22.9896 12.6504 22.54C11.8413 22.0905 10.888 21.9413 9.97166 22.1208L8.4703 22.4135L6.81626 19.7187L7.83413 18.6214C8.46006 17.9507 8.80611 17.0825 8.80611 16.1827C8.80611 15.2829 8.46006 14.4147 7.83413 13.7441L6.81626 12.6467L8.44485 9.96415L9.94621 10.2568C10.8626 10.4363 11.8158 10.2871 12.625 9.83759C13.4342 9.38804 14.043 8.66943 14.3358 7.81814L14.8193 6.44031H18.0765L18.5599 7.83034C18.8528 8.68162 19.4615 9.40024 20.2707 9.84978C21.0799 10.2993 22.0331 10.4485 22.9495 10.269L24.4509 9.97635L26.0795 12.6832L25.0616 13.7806C24.4427 14.4498 24.1009 15.3129 24.1009 16.2071C24.1009 17.1012 24.4427 17.9644 25.0616 18.6336V18.6336ZM16.4479 11.3176C15.4413 11.3176 14.4573 11.6037 13.6204 12.1396C12.7834 12.6755 12.1311 13.4372 11.7459 14.3284C11.3607 15.2197 11.2599 16.2003 11.4563 17.1464C11.6527 18.0925 12.1374 18.9616 12.8491 19.6437C13.5609 20.3258 14.4677 20.7903 15.455 20.9785C16.4422 21.1667 17.4655 21.0701 18.3955 20.7009C19.3254 20.3318 20.1203 19.7066 20.6795 18.9046C21.2387 18.1025 21.5372 17.1595 21.5372 16.1949C21.5372 14.9014 21.001 13.6608 20.0466 12.7461C19.0921 11.8315 17.7976 11.3176 16.4479 11.3176V11.3176ZM16.4479 18.6336C15.9446 18.6336 15.4526 18.4905 15.0341 18.2226C14.6156 17.9546 14.2895 17.5737 14.0969 17.1281C13.9043 16.6825 13.8539 16.1922 13.9521 15.7191C14.0503 15.2461 14.2926 14.8116 14.6485 14.4705C15.0044 14.1295 15.4578 13.8972 15.9514 13.8031C16.445 13.709 16.9567 13.7573 17.4217 13.9419C17.8866 14.1265 18.2841 14.439 18.5637 14.8401C18.8433 15.2411 18.9925 15.7126 18.9925 16.1949C18.9925 16.8417 18.7244 17.462 18.2472 17.9193C17.77 18.3766 17.1228 18.6336 16.4479 18.6336Z" fill="black"/>
</svg>
