<svg width="98" height="98" viewBox="0 0 98 98" fill="none" xmlns="http://www.w3.org/2000/svg">
<g filter="url(#filter0_d_2_224)">
<rect x="24" y="18" width="50" height="50" rx="14" fill="white"/>
</g>
<path d="M58.9574 43.9997C58.7534 43.7771 58.6409 43.4911 58.6409 43.1949C58.6409 42.8987 58.7534 42.6127 58.9574 42.3901L60.586 40.6343C60.7654 40.4425 60.8769 40.2011 60.9043 39.9448C60.9317 39.6885 60.8737 39.4305 60.7386 39.2077L58.194 34.9888C58.0603 34.7663 57.8567 34.59 57.6122 34.4849C57.3677 34.3798 57.0949 34.3513 56.8326 34.4036L54.4406 34.8669C54.1362 34.9272 53.8193 34.8786 53.5498 34.7304C53.2802 34.5821 53.0766 34.3444 52.9774 34.0622L52.2013 31.8308C52.1159 31.5886 51.9533 31.3783 51.7364 31.2295C51.5195 31.0807 51.2593 31.001 50.9925 31.0017H45.9032C45.6257 30.9878 45.3512 31.0613 45.1214 31.211C44.8917 31.3608 44.7194 31.5784 44.6308 31.8308L43.9183 34.0622C43.8191 34.3444 43.6155 34.5821 43.3459 34.7304C43.0764 34.8786 42.7595 34.9272 42.4551 34.8669L39.9995 34.4036C39.7509 34.3699 39.4973 34.4075 39.2709 34.5117C39.0445 34.6158 38.8553 34.7818 38.7272 34.9888L36.1825 39.2077C36.044 39.428 35.9818 39.6846 36.0046 39.9408C36.0275 40.197 36.1343 40.4398 36.3098 40.6343L37.9256 42.3901C38.1296 42.6127 38.2421 42.8987 38.2421 43.1949C38.2421 43.4911 38.1296 43.7771 37.9256 43.9997L36.3098 45.7555C36.1343 45.95 36.0275 46.1928 36.0046 46.449C35.9818 46.7052 36.044 46.9618 36.1825 47.1821L38.7272 51.401C38.8609 51.6235 39.0645 51.7998 39.309 51.9049C39.5534 52.01 39.8263 52.0385 40.0886 51.9862L42.4806 51.5229C42.785 51.4626 43.1018 51.5112 43.3714 51.6595C43.6409 51.8077 43.8445 52.0454 43.9438 52.3276L44.7199 54.559C44.8084 54.8114 44.9807 55.0291 45.2105 55.1788C45.4402 55.3285 45.7148 55.402 45.9922 55.3881H51.0816C51.3483 55.3888 51.6085 55.3091 51.8254 55.1603C52.0423 55.0115 52.205 54.8012 52.2903 54.559L53.0664 52.3276C53.1657 52.0454 53.3693 51.8077 53.6389 51.6595C53.9084 51.5112 54.2253 51.4626 54.5296 51.5229L56.9216 51.9862C57.184 52.0385 57.4568 52.01 57.7013 51.9049C57.9457 51.7998 58.1493 51.6235 58.283 51.401L60.8277 47.1821C60.9628 46.9593 61.0208 46.7013 60.9934 46.445C60.9659 46.1887 60.8545 45.9473 60.675 45.7555L58.9574 43.9997ZM57.0616 45.6336L58.0795 46.7309L56.4509 49.4378L54.9495 49.1452C54.0331 48.9657 53.0799 49.1149 52.2707 49.5644C51.4615 50.014 50.8528 50.7326 50.5599 51.5839L50.0765 52.9495H46.8193L46.3612 51.5595C46.0684 50.7082 45.4596 49.9896 44.6504 49.54C43.8413 49.0905 42.888 48.9413 41.9717 49.1208L40.4703 49.4135L38.8163 46.7187L39.8341 45.6214C40.4601 44.9507 40.8061 44.0825 40.8061 43.1827C40.8061 42.2829 40.4601 41.4147 39.8341 40.7441L38.8163 39.6467L40.4449 36.9642L41.9462 37.2568C42.8626 37.4363 43.8158 37.2871 44.625 36.8376C45.4342 36.388 46.043 35.6694 46.3358 34.8181L46.8193 33.4403H50.0765L50.5599 34.8303C50.8528 35.6816 51.4615 36.4002 52.2707 36.8498C53.0799 37.2993 54.0331 37.4485 54.9495 37.269L56.4509 36.9763L58.0795 39.6832L57.0616 40.7806C56.4427 41.4498 56.1009 42.3129 56.1009 43.2071C56.1009 44.1012 56.4427 44.9644 57.0616 45.6336ZM48.4479 38.3176C47.4413 38.3176 46.4573 38.6037 45.6204 39.1396C44.7834 39.6755 44.1311 40.4372 43.7459 41.3284C43.3607 42.2197 43.2599 43.2003 43.4563 44.1464C43.6527 45.0925 44.1374 45.9616 44.8491 46.6437C45.5609 47.3258 46.4677 47.7903 47.455 47.9785C48.4422 48.1667 49.4655 48.0701 50.3955 47.7009C51.3254 47.3318 52.1203 46.7066 52.6795 45.9046C53.2387 45.1025 53.5372 44.1595 53.5372 43.1949C53.5372 41.9014 53.001 40.6608 52.0466 39.7461C51.0921 38.8315 49.7976 38.3176 48.4479 38.3176ZM48.4479 45.6336C47.9446 45.6336 47.4526 45.4905 47.0341 45.2226C46.6156 44.9546 46.2895 44.5737 46.0969 44.1281C45.9043 43.6825 45.8539 43.1922 45.9521 42.7191C46.0503 42.2461 46.2926 41.8116 46.6485 41.4705C47.0044 41.1295 47.4578 40.8972 47.9514 40.8031C48.445 40.709 48.9567 40.7573 49.4217 40.9419C49.8866 41.1265 50.2841 41.439 50.5637 41.8401C50.8433 42.2411 50.9925 42.7126 50.9925 43.1949C50.9925 43.8417 50.7244 44.462 50.2472 44.9193C49.77 45.3766 49.1228 45.6336 48.4479 45.6336Z" fill="#261D56"/>
<defs>
<filter id="filter0_d_2_224" x="0" y="0" width="98" height="98" filterUnits="userSpaceOnUse" color-interpolation-filters="sRGB">
<feFlood flood-opacity="0" result="BackgroundImageFix"/>
<feColorMatrix in="SourceAlpha" type="matrix" values="0 0 0 0 0 0 0 0 0 0 0 0 0 0 0 0 0 0 127 0" result="hardAlpha"/>
<feOffset dy="6"/>
<feGaussianBlur stdDeviation="12"/>
<feColorMatrix type="matrix" values="0 0 0 0 0.716667 0 0 0 0 0.716667 0 0 0 0 0.716667 0 0 0 0.4 0"/>
<feBlend mode="normal" in2="BackgroundImageFix" result="effect1_dropShadow_2_224"/>
<feBlend mode="normal" in="SourceGraphic" in2="effect1_dropShadow_2_224" result="shape"/>
</filter>
</defs>
</svg>
