<svg width="32" height="32" viewBox="0 0 32 32" fill="none" xmlns="http://www.w3.org/2000/svg">
<path d="M28.192 12.1603L20.6975 11.103L17.3472 4.51003C17.2557 4.32952 17.1052 4.18339 16.9192 4.09456C16.4528 3.87107 15.8861 4.05732 15.6529 4.51003L12.3027 11.103L4.80815 12.1603C4.60152 12.189 4.41261 12.2835 4.26797 12.4268C4.09312 12.6013 3.99676 12.836 4.00008 13.0793C4.0034 13.3227 4.10613 13.5549 4.28568 13.7248L9.70806 18.8565L8.427 26.1028C8.39696 26.2714 8.41618 26.4447 8.48247 26.6032C8.54877 26.7617 8.65949 26.899 8.80208 26.9996C8.94467 27.1001 9.11342 27.1598 9.28921 27.172C9.46499 27.1842 9.64077 27.1483 9.79662 27.0684L16.5001 23.6472L23.2035 27.0684C23.3865 27.1629 23.599 27.1945 23.8027 27.1601C24.3163 27.0741 24.6617 26.6013 24.5731 26.1028L23.2921 18.8565L28.7144 13.7248C28.862 13.5844 28.9594 13.401 28.9889 13.2004C29.0686 12.699 28.7085 12.2348 28.192 12.1603V12.1603ZM21.0103 18.1344L22.0759 24.1601L16.5001 21.3178L10.9242 24.163L11.9898 18.1373L7.47949 13.868L13.7136 12.9884L16.5001 7.50711L19.2865 12.9884L25.5206 13.868L21.0103 18.1344Z" fill="black"/>
</svg>
